<svg id="Lager_1_kopia" data-name="Lager 1 kopia" xmlns="http://www.w3.org/2000/svg" viewBox="0 0 912.17 538.83"><defs><style>.cls-1{font-size:9.07px;stroke-width:0.25px;}.cls-1,.cls-7,.cls-8{stroke:#000;}.cls-1,.cls-10,.cls-2,.cls-7,.cls-8{stroke-miterlimit:10;}.cls-1,.cls-2{font-family:MyriadPro-Regular, Myriad Pro;}.cls-2{font-size:9.13px;fill:#a08d50;stroke:#a08d50;stroke-width:0.5px;}.cls-3{letter-spacing:0em;}.cls-4{letter-spacing:0em;}.cls-5{letter-spacing:-0.01em;}.cls-6{letter-spacing:0.02em;}.cls-10,.cls-11,.cls-7{fill:none;}.cls-7{stroke-width:3px;}.cls-9{fill:#fff;}.cls-10{stroke:#fff;stroke-width:2px;}</style></defs><title>hotellogo</title><text class="cls-1" transform="translate(4.95 41.94)">ADDES</text><text class="cls-2" transform="translate(34.96 44.96) scale(1.11 1)"><tspan class="cls-3">B</tspan><tspan class="cls-4" x="4.99" y="0">each</tspan><tspan class="cls-5" x="23.13" y="0">r</tspan><tspan x="26.02" y="0">eso</tspan><tspan class="cls-6" x="39.23" y="0">r</tspan><tspan x="42.44" y="0">t</tspan></text><rect class="cls-7" x="1.5" y="31.58" width="88.07" height="19.86"/><rect class="cls-8" x="94.31" y="0.5" width="22.45" height="51.37"/><rect class="cls-9" x="96.48" y="5.25" width="6.89" height="6.89"/><rect class="cls-9" x="96.48" y="15" width="6.89" height="6.89"/><rect class="cls-9" x="96.48" y="24.75" width="6.89" height="6.89"/><rect class="cls-9" x="106.83" y="5.25" width="6.89" height="6.89"/><rect class="cls-9" x="106.83" y="15.01" width="6.89" height="6.89"/><rect class="cls-9" x="106.83" y="24.75" width="6.89" height="6.89"/><rect class="cls-10" x="102.44" y="38.69" width="6.15" height="14.48"/><path class="cls-11" d="M362,1064c-25.08-2.73-42.43-18.24-54-38.1V1089H649.1c-59.4-5-119-13.91-177.1-18C435,1068,399,1067,362,1064Z" transform="translate(-31.83 -550.17)"/><path class="cls-11" d="M944,676H896.9a17.43,17.43,0,0,1,6.1,6c23,34,23,74,27,113,1,5,3,10,3,15,6,83,22,179-33,249-36.25,16.38-73.66,25.54-111.74,30H944Z" transform="translate(-31.83 -550.17)"/></svg>